<svg width="13" height="21" viewBox="0 0 13 21" fill="none" xmlns="http://www.w3.org/2000/svg">
<path d="M12.0966 9.57019L3.19638 0.670096C2.99053 0.464081 2.71573 0.350586 2.42273 0.350586C2.12972 0.350586 1.85493 0.464081 1.64908 0.670096L0.993635 1.32537C0.567134 1.75236 0.567134 2.44634 0.993635 2.87268L8.4674 10.3464L0.985342 17.8285C0.77949 18.0345 0.665833 18.3091 0.665833 18.602C0.665833 18.8952 0.77949 19.1698 0.985342 19.376L1.64078 20.0311C1.8468 20.2371 2.12143 20.3506 2.41444 20.3506C2.70744 20.3506 2.98224 20.2371 3.18809 20.0311L12.0966 11.1229C12.303 10.9162 12.4163 10.6403 12.4157 10.3469C12.4163 10.0525 12.303 9.77669 12.0966 9.57019Z" fill="black"/>
</svg>
