<svg width="21" height="18" viewBox="0 0 21 18" fill="none" xmlns="http://www.w3.org/2000/svg">
<path fill-rule="evenodd" clip-rule="evenodd" d="M5.53401 3.29986L2.25421 3.10498V11.3876C2.25421 11.5868 2.34499 11.6666 2.53323 11.6666H5.7289L5.53401 3.29986Z" fill="#C17D4F"/>
<path fill-rule="evenodd" clip-rule="evenodd" d="M14.3592 11.3876C14.3592 11.568 14.275 11.6666 14.0801 11.6666H5.53406V3.10498H14.3592V11.3876Z" fill="#CE9875"/>
<path fill-rule="evenodd" clip-rule="evenodd" d="M5.53403 3.29988H2.25423L0.324195 0.630156C0.235601 0.507266 0.277672 0.404297 0.440445 0.404297H7.82165L5.53403 3.29988Z" fill="#C6865C"/>
<path fill-rule="evenodd" clip-rule="evenodd" d="M5.33801 3.29988H14.3591L16.2891 0.630156C16.3821 0.501719 16.3334 0.404297 16.1728 0.404297H7.43082L5.33801 3.29988Z" fill="#C6865C"/>
<path fill-rule="evenodd" clip-rule="evenodd" d="M10.9011 3.29986V4.4426C10.9011 4.6142 10.7605 4.75482 10.5877 4.75482H8.83045C8.65881 4.75482 8.51819 4.61416 8.51819 4.4426V3.29986L9.94659 3.10498L10.9011 3.29986Z" fill="#E27F84"/>
<path fill-rule="evenodd" clip-rule="evenodd" d="M8.51819 3.29988H10.9011L12.9938 0.404297H10.611L8.51819 3.29988Z" fill="#C9646D"/>
<path fill-rule="evenodd" clip-rule="evenodd" d="M5.53401 3.29988H4.55737L6.65015 0.404297H7.62678L5.53401 3.29988Z" fill="#C17D4F"/>
<path fill-rule="evenodd" clip-rule="evenodd" d="M13.3825 3.29988H14.3591L16.2891 0.630156C16.3822 0.501719 16.3334 0.404297 16.1729 0.404297H15.1973C15.3568 0.404297 15.4055 0.501719 15.3125 0.630156L13.3825 3.29988Z" fill="#C17D4F"/>
<path fill-rule="evenodd" clip-rule="evenodd" d="M13.3825 3.29987H14.3591V6.25076H13.3825V3.29987Z" fill="#C6865C"/>
<path fill-rule="evenodd" clip-rule="evenodd" d="M4.55737 3.29987H5.53401V11.6666H4.55737V3.29987Z" fill="#B16E3D"/>
<path fill-rule="evenodd" clip-rule="evenodd" d="M14.3591 17.5862C17.6201 17.5862 20.2787 14.9276 20.2787 11.6666C20.2787 8.4067 17.6201 5.74698 14.3591 5.74698C11.0992 5.74698 8.43951 8.4067 8.43951 11.6666C8.43951 14.9275 11.0992 17.5862 14.3591 17.5862Z" fill="#FFE07D"/>
<path fill-rule="evenodd" clip-rule="evenodd" d="M14.3592 5.74698C17.629 5.74698 20.2788 8.39784 20.2788 11.6666C20.2788 14.9364 17.629 17.5862 14.3592 17.5862C14.1953 17.5862 14.0325 17.5795 13.8708 17.5662C16.9115 17.3182 19.3021 14.7714 19.3021 11.6666C19.3021 8.56174 16.9115 6.01604 13.8708 5.76694C14.0325 5.75471 14.1953 5.74698 14.3592 5.74698Z" fill="#FFD064"/>
<path d="M10.6353 12.8215C10.6353 12.9832 10.5035 13.1149 10.3419 13.1149C10.1802 13.1149 10.0496 12.9832 10.0496 12.8215V10.5482C10.0496 10.3865 10.1802 10.2559 10.3419 10.2559C10.4504 10.2559 10.5456 10.3146 10.5954 10.4021L11.6385 11.9113L11.6252 10.5471C11.623 10.3854 11.7537 10.2537 11.9142 10.2526C12.0759 10.2515 12.2076 10.381 12.2087 10.5416L12.2298 12.7163C12.2364 12.7938 12.2154 12.878 12.1733 12.9433C12.1357 13.002 12.0837 13.0441 12.0205 13.0684C11.9486 13.0961 11.8722 13.0972 11.7946 13.0673C11.736 13.0441 11.6817 13.002 11.6385 12.94L10.6353 11.4872V12.8215H10.6353ZM14.8984 10.6268C14.8464 10.474 14.9283 10.3079 15.0811 10.2559C15.2339 10.2028 15.4 10.2847 15.4531 10.4375L15.968 11.9357L16.5095 10.4154C16.5637 10.2625 16.7309 10.1828 16.8826 10.236C16.9723 10.268 17.0365 10.3378 17.0631 10.4209L17.5769 11.9279L18.1007 10.433C18.1539 10.2813 18.321 10.2005 18.4727 10.2536C18.6255 10.3068 18.7053 10.4729 18.6521 10.6257L17.8537 12.9045C17.8272 12.9931 17.7607 13.0673 17.6677 13.0983C17.5138 13.1503 17.3477 13.0684 17.2968 12.9155L16.7797 11.4008L16.2426 12.9067C16.2161 12.9931 16.1496 13.0673 16.0577 13.0983C15.9049 13.1514 15.7377 13.0695 15.6857 12.9167L14.8984 10.6268ZM14.0823 10.2725C14.244 10.2725 14.3746 10.4031 14.3746 10.5648C14.3746 10.7264 14.2439 10.8582 14.0823 10.8582H13.4246V11.4009H14.0125C14.1742 11.4009 14.3049 11.5315 14.3049 11.6932C14.3049 11.8548 14.1742 11.9866 14.0125 11.9866H13.4246V12.5292H14.0823C14.244 12.5292 14.3746 12.6598 14.3746 12.8215C14.3746 12.9832 14.2439 13.1149 14.0823 13.1149H13.1311C12.9694 13.1149 12.8388 12.9832 12.8388 12.8215V10.5648C12.8388 10.4031 12.9695 10.2725 13.1311 10.2725H14.0823V10.2725Z" fill="#E27F84"/>
</svg>
