<svg width="26" height="16" viewBox="0 0 26 16" fill="none" xmlns="http://www.w3.org/2000/svg">
<path d="M5.55133 7.52504H6.89712C7.18968 4.50348 9.6082 2.08622 12.6314 1.79381V0.44873C8.86704 0.760634 5.8634 3.7627 5.55133 7.52504Z" fill="#FF4A4A"/>
<path d="M13.9185 14.5623V15.9074C17.6828 15.5955 20.706 12.5934 20.9985 8.83105H19.6528C19.3602 11.8526 16.9417 14.2504 13.9185 14.5623Z" fill="#FF4A4A"/>
<path d="M25.2115 2.20319C24.9384 2.20319 24.7239 2.37863 24.6654 2.63205H18.6776C17.4293 1.40393 15.7715 0.604682 13.9186 0.44873V1.79381C16.9417 2.08622 19.3602 4.50348 19.6528 7.52504H20.9986C20.9791 7.17415 20.9206 6.84275 20.8426 6.51135H23.9242C23.9827 6.76478 24.2168 6.95972 24.4899 6.95972C24.8019 6.95972 25.075 6.70629 25.075 6.3749C25.075 6.06299 24.8214 5.79008 24.4899 5.79008C24.2168 5.79008 24.0022 5.96552 23.9437 6.21895H20.7841C20.628 5.59514 20.3745 4.99082 20.0624 4.4255H22.793C22.8515 4.67892 23.0856 4.87386 23.3586 4.87386C23.6707 4.87386 23.9437 4.62044 23.9437 4.28904C23.9437 3.97714 23.6902 3.70422 23.3586 3.70422C23.0856 3.70422 22.871 3.87967 22.8125 4.13309H19.9064C19.6333 3.68473 19.3212 3.27536 18.9702 2.88548H24.6654C24.7239 3.1389 24.958 3.33384 25.231 3.33384C25.5431 3.33384 25.8161 3.08042 25.8161 2.74902C25.7966 2.45661 25.5431 2.20319 25.2115 2.20319Z" fill="#CA2FF2"/>
<path d="M6.89685 8.81152H5.55106C5.57056 9.16241 5.62907 9.49381 5.70709 9.82521H2.60592C2.54741 9.57179 2.31336 9.37685 2.0403 9.37685C1.72823 9.37685 1.45518 9.63027 1.45518 9.96167C1.45518 10.2736 1.70873 10.5465 2.0403 10.5465C2.31336 10.5465 2.52791 10.371 2.58642 10.1176H5.7461C5.90213 10.7414 6.15569 11.3457 6.46775 11.9111H3.73717C3.67865 11.6576 3.4446 11.4627 3.17154 11.4627C2.85948 11.4627 2.58642 11.7161 2.58642 12.0475C2.58642 12.3594 2.83997 12.6323 3.17154 12.6323C3.4446 12.6323 3.65915 12.4569 3.71766 12.2035H6.62379C6.89685 12.6518 7.20891 13.0612 7.55999 13.4511H1.88427C1.82576 13.1977 1.5917 13.0027 1.31865 13.0027C1.00658 13.0027 0.733521 13.2561 0.733521 13.5875C0.733521 13.8994 0.987075 14.1724 1.31865 14.1724C1.5917 14.1724 1.80625 13.9969 1.86476 13.7435H7.85255C9.10082 14.9716 10.7782 15.7514 12.6116 15.9073V14.5622C9.60793 14.2503 7.18941 11.8526 6.89685 8.81152Z" fill="#CA2FF2"/>
<path d="M16.7015 7.92711C16.9922 7.59257 17.1771 7.15238 17.1771 6.67698C17.1771 5.62933 16.3227 4.78418 15.2833 4.78418H12.5087C12.3854 4.6081 12.174 4.49365 11.945 4.49365C11.5662 4.49365 11.2579 4.80178 11.2579 5.18034C11.2579 5.5589 11.5662 5.86704 11.945 5.86704C12.174 5.86704 12.3854 5.75259 12.5087 5.57651H15.2745C15.8823 5.57651 16.3756 6.06952 16.3756 6.67698C16.3756 7.28444 15.8823 7.77745 15.2745 7.77745H13.7419V5.86704H12.9403V10.4802H13.7419V8.57859H15.2833H15.9616C16.5694 8.57859 17.0626 9.0716 17.0626 9.67905C17.0626 10.2865 16.5694 10.7795 15.9616 10.7795H11.3989C11.2755 10.6034 11.0641 10.489 10.8351 10.489C10.4564 10.489 10.1481 10.7971 10.1481 11.1757C10.1481 11.5543 10.4564 11.8624 10.8351 11.8624C11.0641 11.8624 11.2755 11.7479 11.3989 11.5719H15.9528C17.001 11.5719 17.8466 10.7179 17.8466 9.67905C17.8554 8.88672 17.3797 8.21763 16.7015 7.92711ZM11.945 5.40044C11.8305 5.40044 11.7336 5.3036 11.7336 5.18915C11.7336 5.0747 11.8305 4.97786 11.945 4.97786C12.0595 4.97786 12.1564 5.0747 12.1564 5.18915C12.1652 5.3036 12.0683 5.40044 11.945 5.40044ZM10.8351 11.3782C10.7206 11.3782 10.6237 11.2813 10.6237 11.1669C10.6237 11.0524 10.7206 10.9556 10.8351 10.9556C10.9496 10.9556 11.0465 11.0524 11.0465 11.1669C11.0553 11.2813 10.9584 11.3782 10.8351 11.3782Z" fill="#FF4A4A"/>
<path d="M10.3504 7.63779C10.5795 7.63779 10.7909 7.52329 10.9142 7.34712H12.4821V6.54556H10.9142C10.7909 6.36939 10.5795 6.25488 10.3504 6.25488C9.97168 6.25488 9.66339 6.56318 9.66339 6.94193C9.65458 7.3295 9.96288 7.63779 10.3504 7.63779ZM10.3504 6.73053C10.465 6.73053 10.5618 6.82743 10.5618 6.94193C10.5618 7.05644 10.465 7.15334 10.3504 7.15334C10.2359 7.15334 10.139 7.05644 10.139 6.94193C10.139 6.82743 10.2271 6.73053 10.3504 6.73053Z" fill="#FF4A4A"/>
<path d="M12.5173 9.42451V8.62295H9.95403C9.83072 8.44678 9.61932 8.33228 9.3903 8.33228C9.01154 8.33228 8.70325 8.64057 8.70325 9.01933C8.70325 9.39809 9.01154 9.70638 9.3903 9.70638C9.61932 9.70638 9.83072 9.59187 9.95403 9.4157H12.5173V9.42451ZM9.3903 9.23954C9.27579 9.23954 9.1789 9.14264 9.1789 9.02814C9.1789 8.91363 9.27579 8.81673 9.3903 8.81673C9.50481 8.81673 9.6017 8.91363 9.6017 9.02814C9.61051 9.14264 9.51362 9.23954 9.3903 9.23954Z" fill="#FF4A4A"/>
</svg>
