<svg width="21" height="21" viewBox="0 0 21 21" fill="none" xmlns="http://www.w3.org/2000/svg">
<path d="M14.9028 0.844727H5.73041C2.74518 0.844727 0.316589 3.27332 0.316589 6.25854V15.4311C0.316589 18.4161 2.74518 20.8447 5.73041 20.8447H14.9029C17.888 20.8447 20.3166 18.4161 20.3166 15.4311V6.25854C20.3166 3.27332 17.888 0.844727 14.9028 0.844727V0.844727ZM19.1441 15.4311C19.1441 17.7696 17.2415 19.6722 14.9028 19.6722H5.73041C3.39169 19.6722 1.48907 17.7696 1.48907 15.4311V6.25854C1.48907 3.91983 3.39169 2.01721 5.73041 2.01721H14.9029C17.2415 2.01721 19.1441 3.91983 19.1441 6.25854V15.4311Z" fill="#FF014F"/>
<path d="M10.3166 5.37598C7.30115 5.37598 4.84799 7.82913 4.84799 10.8446C4.84799 13.86 7.30115 16.3132 10.3166 16.3132C13.332 16.3132 15.7852 13.86 15.7852 10.8446C15.7852 7.82913 13.332 5.37598 10.3166 5.37598V5.37598ZM10.3166 15.1407C7.94781 15.1407 6.02048 13.2135 6.02048 10.8446C6.02048 8.4758 7.94781 6.54846 10.3166 6.54846C12.6855 6.54846 14.6127 8.4758 14.6127 10.8446C14.6127 13.2135 12.6855 15.1407 10.3166 15.1407V15.1407Z" fill="#FF014F"/>
<path d="M15.916 3.43408C15.0248 3.43408 14.3 4.15903 14.3 5.04999C14.3 5.9411 15.0248 6.66605 15.916 6.66605C16.8071 6.66605 17.532 5.9411 17.532 5.04999C17.532 4.15887 16.8071 3.43408 15.916 3.43408ZM15.916 5.49341C15.6715 5.49341 15.4725 5.29443 15.4725 5.04999C15.4725 4.80539 15.6715 4.60657 15.916 4.60657C16.1606 4.60657 16.3595 4.80539 16.3595 5.04999C16.3595 5.29443 16.1606 5.49341 15.916 5.49341Z" fill="#FF014F"/>
</svg>
