<svg width="20" height="15" viewBox="0 0 20 15" fill="none" xmlns="http://www.w3.org/2000/svg">
<path d="M18.0309 14.7937H1.96907C1.44699 14.7931 0.946468 14.5854 0.57732 14.2163C0.208172 13.8471 0.000547798 13.3465 0 12.8245V2.9048C0.000547798 2.38272 0.208172 1.88218 0.57732 1.513C0.946468 1.14382 1.44699 0.936145 1.96907 0.935547H18.0309C18.553 0.936145 19.0535 1.14382 19.4227 1.513C19.7918 1.88218 19.9995 2.38272 20 2.9048V12.8245C19.9995 13.3465 19.7918 13.8471 19.4227 14.2163C19.0535 14.5854 18.553 14.7931 18.0309 14.7937ZM1.96907 1.68818C1.64652 1.68853 1.33729 1.81682 1.10923 2.04491C0.881178 2.27301 0.752928 2.58226 0.752629 2.9048V12.8245C0.752928 13.147 0.881178 13.4563 1.10923 13.6843C1.33729 13.9124 1.64652 14.0407 1.96907 14.0411H18.0309C18.3535 14.0407 18.6627 13.9124 18.8908 13.6843C19.1188 13.4563 19.2471 13.147 19.2474 12.8245V2.9048C19.2471 2.58226 19.1188 2.27301 18.8908 2.04491C18.6627 1.81682 18.3535 1.68853 18.0309 1.68818H1.96907Z" fill="#DEDEDE"/>
<path d="M10 10.0793C9.90828 10.0794 9.81968 10.0459 9.75089 9.98523L0.681702 1.97951L1.17975 1.41504L10 9.20174L18.8206 1.41598L19.3187 1.98045L10.2495 9.98617C10.1805 10.0467 10.0918 10.0798 10 10.0793Z" fill="#DEDEDE"/>
<path d="M0.477051 13.6118L6.56963 6.66996L7.13561 7.1667L1.04303 14.1086L0.477051 13.6118Z" fill="#DEDEDE"/>
<path d="M12.8835 7.15967L13.4495 6.66293L19.5422 13.6049L18.9763 14.1017L12.8835 7.15967Z" fill="white"/>
</svg>
