<svg width="21" height="18" viewBox="0 0 21 18" fill="none" xmlns="http://www.w3.org/2000/svg">
<path d="M20.1043 2.74727C19.3543 3.07227 18.5793 3.29727 17.7543 3.39727C18.6043 2.89727 19.2543 2.09727 19.5543 1.12227C18.7543 1.59727 17.8793 1.92227 16.9543 2.12227C16.2043 1.32227 15.1293 0.822266 13.9543 0.822266C11.6793 0.822266 9.85431 2.67227 9.85431 4.92227C9.85431 5.24727 9.87931 5.54727 9.95431 5.84727C6.55431 5.69727 3.55431 4.04727 1.52931 1.57227C0.0793092 4.17227 1.70431 6.32227 2.77931 7.04727C2.12931 7.04727 1.47931 6.84727 0.929309 6.54727C0.929309 8.57227 2.35431 10.2473 4.20431 10.6223C3.80431 10.7473 2.90431 10.8223 2.35431 10.6973C2.87931 12.3223 4.40431 13.5223 6.17931 13.5473C4.77931 14.6473 2.72931 15.5223 0.104309 15.2473C1.92931 16.4223 4.07931 17.0973 6.40431 17.0973C13.9543 17.0973 18.0543 10.8473 18.0543 5.44727C18.0543 5.27227 18.0543 5.09727 18.0293 4.92227C18.8793 4.29727 19.5793 3.57227 20.1043 2.74727Z" fill="#FF014F"/>
</svg>
