<svg width="21" height="15" viewBox="0 0 21 15" fill="none" xmlns="http://www.w3.org/2000/svg">
<path d="M19.9045 3.14916C19.674 2.29238 18.9985 1.61703 18.1418 1.38632C16.5767 0.958008 10.3164 0.958008 10.3164 0.958008C10.3164 0.958008 4.0562 0.958008 2.49111 1.36999C1.65096 1.60055 0.958982 2.29254 0.728422 3.14916C0.316589 4.7141 0.316589 7.95963 0.316589 7.95963C0.316589 7.95963 0.316589 11.2215 0.728422 12.7701C0.959134 13.6267 1.63449 14.3022 2.49126 14.5329C4.07268 14.9612 10.3165 14.9612 10.3165 14.9612C10.3165 14.9612 16.5767 14.9612 18.1418 14.5493C18.9986 14.3187 19.674 13.6432 19.9047 12.7866C20.3165 11.2215 20.3165 7.97611 20.3165 7.97611C20.3165 7.97611 20.333 4.7141 19.9045 3.14916Z" fill="#FF014F"/>
<path d="M8.32315 10.9581L13.529 7.95978L8.32315 4.96143V10.9581Z" fill="white"/>
</svg>
