<svg width="56" height="51" viewBox="0 0 56 51" fill="none" xmlns="http://www.w3.org/2000/svg">
<path d="M28.926 37.1202H21.042C19.5686 37.1202 18.1555 37.7055 17.1136 38.7474L15.0371 40.8239L19.6667 45.4536L21.9022 43.2182C22.2495 42.8708 22.7204 42.6758 23.2116 42.6758H28.926C30.4601 42.6758 31.7038 41.4322 31.7038 39.898C31.7038 38.3639 30.4601 37.1202 28.926 37.1202Z" fill="#FAB991"/>
<path d="M42.2724 35.8108C41.5493 35.0875 40.3767 35.0875 39.6536 35.8108L32.7886 42.6758H23.2117C22.7206 42.6758 22.2495 42.8709 21.9022 43.2182L19.6667 45.4536L22.4445 48.2314L24.2964 46.3795H33.1722C33.9142 46.3795 34.6118 46.0905 35.1363 45.5659L42.2725 38.4296C42.9957 37.7065 42.9957 36.534 42.2724 35.8108Z" fill="#F0915A"/>
<path d="M28.926 41.4411H28.3088C27.7975 41.4411 27.3829 41.0265 27.3829 40.5151V39.2805C27.3829 38.7692 27.7975 38.3546 28.3088 38.3546H28.926C29.7784 38.3546 30.4692 39.0456 30.4692 39.8978C30.4692 40.7502 29.7784 41.4411 28.926 41.4411Z" fill="#F0915A"/>
<path d="M14.766 40.5529L19.6668 45.4537L15.0371 50.0834H3.92603L13.4565 40.5529C13.818 40.1913 14.4044 40.1913 14.766 40.5529Z" fill="#555A6E"/>
<path d="M19.6667 45.4534L22.7157 48.5023C23.0773 48.8639 23.0773 49.4502 22.7157 49.8118L22.4445 50.083H15.0371L19.6667 45.4534Z" fill="#463C4B"/>
<path d="M13.1853 0.0830078H3.92605C2.47964 1.52942 1.66876 2.3403 0.222351 3.78671V16.7497C0.222351 17.7725 1.0514 18.6015 2.0742 18.6015H13.1853C14.2081 18.6015 15.0372 17.7725 15.0372 16.7497V1.93486C15.0372 0.912059 14.2081 0.0830078 13.1853 0.0830078Z" fill="#FF6E91"/>
<path d="M3.92605 0.0830078L0.222351 3.78671H2.0742C3.097 3.78671 3.92605 2.95766 3.92605 1.93486V0.0830078Z" fill="#E64178"/>
<path d="M12.2594 7.49028H3.00014C2.4888 7.49028 2.07422 7.0757 2.07422 6.56435C2.07422 6.05301 2.4888 5.63843 3.00014 5.63843H12.2594C12.7707 5.63843 13.1853 6.05301 13.1853 6.56435C13.1853 7.0757 12.7707 7.49028 12.2594 7.49028Z" fill="#E64178"/>
<path d="M12.2594 11.1941H3.00014C2.4888 11.1941 2.07422 10.7796 2.07422 10.2682C2.07422 9.75687 2.4888 9.34229 3.00014 9.34229H12.2594C12.7707 9.34229 13.1853 9.75687 13.1853 10.2682C13.1853 10.7796 12.7707 11.1941 12.2594 11.1941Z" fill="#E64178"/>
<path d="M8.5557 14.8979H3.00014C2.4888 14.8979 2.07422 14.4833 2.07422 13.9719C2.07422 13.4606 2.4888 13.046 3.00014 13.046H8.5557C9.06704 13.046 9.48163 13.4606 9.48163 13.9719C9.48163 14.4833 9.06704 14.8979 8.5557 14.8979Z" fill="#E64178"/>
<path d="M33.5557 0.0830078H24.2964C22.85 1.52942 22.0391 2.3403 20.5927 3.78671V16.7497C20.5927 17.7725 21.4218 18.6015 22.4446 18.6015H33.5557C34.5785 18.6015 35.4075 17.7725 35.4075 16.7497V1.93486C35.4075 0.912059 34.5785 0.0830078 33.5557 0.0830078Z" fill="#5AD7FF"/>
<path d="M24.2964 0.0830078L20.5927 3.78671H22.4446C23.4674 3.78671 24.2964 2.95766 24.2964 1.93486V0.0830078Z" fill="#2387C3"/>
<path d="M32.6298 7.49028H23.3705C22.8592 7.49028 22.4446 7.0757 22.4446 6.56435C22.4446 6.05301 22.8592 5.63843 23.3705 5.63843H32.6298C33.1411 5.63843 33.5557 6.05301 33.5557 6.56435C33.5557 7.0757 33.1411 7.49028 32.6298 7.49028Z" fill="#2387C3"/>
<path d="M32.6298 11.1941H23.3705C22.8592 11.1941 22.4446 10.7796 22.4446 10.2682C22.4446 9.75687 22.8592 9.34229 23.3705 9.34229H32.6298C33.1411 9.34229 33.5557 9.75687 33.5557 10.2682C33.5557 10.7796 33.1411 11.1941 32.6298 11.1941Z" fill="#2387C3"/>
<path d="M28.9261 14.8979H23.3705C22.8592 14.8979 22.4446 14.4833 22.4446 13.9719C22.4446 13.4606 22.8592 13.046 23.3705 13.046H28.9261C29.4374 13.046 29.852 13.4606 29.852 13.9719C29.852 14.4833 29.4374 14.8979 28.9261 14.8979Z" fill="#2387C3"/>
<path d="M53.926 0.0830078H44.6668C43.2204 1.52942 42.4095 2.3403 40.9631 3.78671V16.7497C40.9631 17.7725 41.7921 18.6015 42.8149 18.6015H53.926C54.9488 18.6015 55.7779 17.7725 55.7779 16.7497V1.93486C55.7779 0.912059 54.9488 0.0830078 53.926 0.0830078Z" fill="#D7E6F0"/>
<path d="M44.6668 0.0830078L40.9631 3.78671H42.8149C43.8377 3.78671 44.6668 2.95766 44.6668 1.93486V0.0830078Z" fill="#A5C3DC"/>
<path d="M53.0001 7.49028H43.7409C43.2295 7.49028 42.8149 7.0757 42.8149 6.56435C42.8149 6.05301 43.2295 5.63843 43.7409 5.63843H53.0001C53.5115 5.63843 53.9261 6.05301 53.9261 6.56435C53.9261 7.0757 53.5115 7.49028 53.0001 7.49028Z" fill="#A5C3DC"/>
<path d="M53.0001 11.1941H43.7409C43.2295 11.1941 42.8149 10.7796 42.8149 10.2682C42.8149 9.75687 43.2295 9.34229 43.7409 9.34229H53.0001C53.5115 9.34229 53.9261 9.75687 53.9261 10.2682C53.9261 10.7796 53.5115 11.1941 53.0001 11.1941Z" fill="#A5C3DC"/>
<path d="M49.2964 14.8979H43.7409C43.2295 14.8979 42.8149 14.4833 42.8149 13.9719C42.8149 13.4606 43.2295 13.046 43.7409 13.046H49.2964C49.8078 13.046 50.2223 13.4606 50.2223 13.9719C50.2223 14.4833 49.8078 14.8979 49.2964 14.8979Z" fill="#A5C3DC"/>
<path d="M47.4446 18.6016V20.4534C47.4446 21.985 46.1984 23.2312 44.6668 23.2312H39.1113C36.5585 23.2312 34.4816 25.308 34.4816 27.8608V28.7867H33.5557C33.1812 28.7867 32.8436 29.0123 32.7003 29.3583C32.557 29.7042 32.6361 30.1025 32.901 30.3673L34.7528 32.2192C34.9336 32.3999 35.1705 32.4903 35.4076 32.4903C35.6446 32.4903 35.8815 32.3999 36.0623 32.2192L37.9142 30.3673C38.179 30.1025 38.2582 29.7042 38.1148 29.3583C37.9714 29.0123 37.6339 28.7867 37.2594 28.7867H36.3335V27.8608C36.3335 26.3292 37.5797 25.083 39.1113 25.083H44.6668C47.2196 25.083 49.2964 23.0062 49.2964 20.4534V18.6016H47.4446Z" fill="#555A6E"/>
<path d="M23.3 29.3583C23.1568 29.0123 22.8191 28.7867 22.4446 28.7867H21.5187V27.8608C21.5187 25.308 19.4418 23.2312 16.889 23.2312H11.3335C9.80189 23.2312 8.55571 21.985 8.55571 20.4534V18.6016H6.70386V20.4534C6.70386 23.0062 8.78071 25.083 11.3335 25.083H16.889C18.4206 25.083 19.6668 26.3292 19.6668 27.8608V28.7867H18.7409C18.3664 28.7867 18.0287 29.0123 17.8855 29.3583C17.7422 29.7042 17.8213 30.1025 18.0862 30.3673L19.938 32.2192C20.1188 32.3999 20.3557 32.4903 20.5927 32.4903C20.8298 32.4903 21.0667 32.3999 21.2475 32.2192L23.0993 30.3673C23.3642 30.1026 23.4433 29.7043 23.3 29.3583Z" fill="#555A6E"/>
<path d="M30.7074 33.062C30.5641 32.716 30.2265 32.4905 29.852 32.4905H28.9261V18.6016H27.0742V32.4905H26.1483C25.7738 32.4905 25.4361 32.716 25.2929 33.062C25.1496 33.4079 25.2287 33.8062 25.4935 34.071L27.3454 35.9229C27.5262 36.1036 27.7631 36.194 28.0001 36.194C28.2372 36.194 28.4741 36.1036 28.6549 35.9229L30.5067 34.071C30.7716 33.8063 30.8507 33.408 30.7074 33.062Z" fill="#555A6E"/>
</svg>
