<svg width="50" height="51" viewBox="0 0 50 51" fill="none" xmlns="http://www.w3.org/2000/svg">
<path d="M48.9065 28.699C48.7052 28.3927 48.4455 28.1289 48.1422 27.9229C47.839 27.7169 47.4981 27.5727 47.1391 27.4985C46.7801 27.4243 46.41 27.4215 46.0499 27.4903C45.6898 27.5592 45.3468 27.6983 45.0405 27.8997L44.8069 28.0525L47.8725 32.719L48.1061 32.5662C48.4128 32.365 48.6769 32.1054 48.8832 31.8021C49.0894 31.4988 49.2339 31.1578 49.3082 30.7986C49.3826 30.4394 49.3854 30.0691 49.3164 29.7088C49.2475 29.3485 49.1082 29.0054 48.9065 28.699Z" fill="#6ADDC7"/>
<path d="M33.8299 3.63175H3.93779C3.50472 3.62747 3.07511 3.70923 2.67389 3.87227C2.27266 4.03532 1.9078 4.27642 1.60048 4.58158C1.29316 4.88674 1.04949 5.24988 0.883611 5.64995C0.717732 6.05002 0.632945 6.47904 0.634168 6.91213V46.8789C0.634168 48.7123 2.10331 50.2412 3.93779 50.2412H33.8299C34.7167 50.2323 35.5643 49.8745 36.1893 49.2452C36.8142 48.6159 37.1662 47.7658 37.1689 46.8789V6.91213C37.1689 5.07764 35.6632 3.63175 33.8299 3.63175ZM8.1725 10.1405C7.8088 10.1405 7.45326 10.0326 7.15086 9.83056C6.84845 9.62849 6.61275 9.3413 6.47357 9.00528C6.33438 8.66926 6.29797 8.29952 6.36892 7.9428C6.43988 7.58609 6.61502 7.25842 6.87219 7.00125C7.12937 6.74407 7.45703 6.56893 7.81375 6.49797C8.17046 6.42702 8.54021 6.46344 8.87622 6.60262C9.21224 6.7418 9.49944 6.9775 9.7015 7.27991C9.90357 7.58232 10.0114 7.93785 10.0114 8.30156C10.0114 8.54305 9.9639 8.78219 9.8715 9.00531C9.77909 9.22843 9.64364 9.43117 9.47288 9.60193C9.30211 9.77269 9.09938 9.90815 8.87626 10.0006C8.65314 10.093 8.414 10.1405 8.1725 10.1405ZM15.0942 10.1405C14.7305 10.1405 14.3749 10.0326 14.0725 9.83056C13.7701 9.62849 13.5344 9.3413 13.3952 9.00528C13.2561 8.66926 13.2196 8.29952 13.2906 7.9428C13.3615 7.58609 13.5367 7.25842 13.7939 7.00125C14.051 6.74407 14.3787 6.56893 14.7354 6.49797C15.0921 6.42702 15.4619 6.46344 15.7979 6.60262C16.1339 6.7418 16.4211 6.9775 16.6232 7.27991C16.8252 7.58232 16.9331 7.93785 16.9331 8.30156C16.9331 8.54305 16.8856 8.78219 16.7932 9.00531C16.7008 9.22843 16.5653 9.43117 16.3946 9.60193C16.2238 9.77269 16.0211 9.90815 15.7979 10.0006C15.5748 10.093 15.3357 10.1405 15.0942 10.1405ZM22.017 10.1405C21.6533 10.1405 21.2977 10.0326 20.9953 9.83056C20.6929 9.62849 20.4572 9.3413 20.318 9.00528C20.1788 8.66926 20.1424 8.29952 20.2134 7.9428C20.2843 7.58609 20.4595 7.25842 20.7166 7.00125C20.9738 6.74407 21.3015 6.56893 21.6582 6.49797C22.0149 6.42702 22.3847 6.46344 22.7207 6.60262C23.0567 6.7418 23.3439 6.9775 23.546 7.27991C23.748 7.58232 23.8559 7.93785 23.8559 8.30156C23.856 8.54309 23.8085 8.78228 23.7162 9.00545C23.6238 9.22862 23.4884 9.4314 23.3176 9.60219C23.1468 9.77298 22.944 9.90843 22.7208 10.0008C22.4977 10.0932 22.2585 10.1406 22.017 10.1405ZM28.9386 10.1405C28.5749 10.1405 28.2194 10.0326 27.917 9.83056C27.6146 9.62849 27.3789 9.3413 27.2397 9.00528C27.1005 8.66926 27.0641 8.29952 27.135 7.9428C27.206 7.58609 27.3811 7.25842 27.6383 7.00125C27.8955 6.74407 28.2232 6.56893 28.5799 6.49797C28.9366 6.42702 29.3063 6.46344 29.6423 6.60262C29.9784 6.7418 30.2656 6.9775 30.4676 7.27991C30.6697 7.58232 30.7775 7.93785 30.7775 8.30156C30.7776 8.54305 30.73 8.78219 30.6376 9.00531C30.5452 9.22843 30.4098 9.43117 30.239 9.60193C30.0682 9.77269 29.8655 9.90815 29.6424 10.0006C29.4193 10.093 29.1801 10.1405 28.9386 10.1405Z" fill="#CAE6EE"/>
<path d="M8.62753 15.2454C9.38789 15.2453 10.1312 15.4706 10.7635 15.893C11.3958 16.3153 11.8886 16.9157 12.1797 17.6181C12.4708 18.3205 12.547 19.0935 12.3988 19.8393C12.2505 20.5851 11.8845 21.2701 11.3469 21.8079C10.8093 22.3456 10.1244 22.7118 9.37864 22.8603C8.63291 23.0087 7.85991 22.9327 7.15738 22.6418C6.45486 22.351 5.85437 21.8583 5.43184 21.2261C5.00932 20.594 4.78374 19.8507 4.78363 19.0904C4.7836 18.0708 5.18854 17.0929 5.90938 16.3719C6.63023 15.6508 7.60795 15.2456 8.62753 15.2454Z" fill="#81C83D"/>
<path d="M8.62753 26.3165C9.38789 26.3164 10.1312 26.5418 10.7635 26.9641C11.3958 27.3865 11.8886 27.9868 12.1797 28.6893C12.4708 29.3917 12.547 30.1647 12.3988 30.9105C12.2505 31.6562 11.8845 32.3413 11.3469 32.879C10.8093 33.4168 10.1244 33.783 9.37864 33.9315C8.63291 34.0799 7.85991 34.0039 7.15738 33.713C6.45486 33.4221 5.85437 32.9295 5.43184 32.2973C5.00932 31.6651 4.78374 30.9219 4.78363 30.1615C4.7836 29.142 5.18854 28.1641 5.90938 27.4431C6.63023 26.722 7.60795 26.3168 8.62753 26.3165Z" fill="#81C83D"/>
<path d="M8.62753 37.3876C9.38789 37.3875 10.1312 37.6128 10.7635 38.0352C11.3958 38.4575 11.8886 39.0579 12.1797 39.7603C12.4708 40.4627 12.547 41.2357 12.3988 41.9815C12.2505 42.7273 11.8845 43.4123 11.3469 43.9501C10.8093 44.4878 10.1244 44.8541 9.37864 45.0025C8.63291 45.1509 7.85991 45.0749 7.15738 44.784C6.45486 44.4932 5.85437 44.0005 5.43184 43.3683C5.00932 42.7362 4.78374 41.9929 4.78363 41.2326C4.7836 40.213 5.18854 39.2352 5.90938 38.5141C6.63023 37.7931 7.60795 37.3878 8.62753 37.3876Z" fill="#81C83D"/>
<path d="M3.95551 46.8789V6.91213C3.95429 6.47904 4.03907 6.05002 4.20495 5.64995C4.37083 5.24988 4.6145 4.88674 4.92182 4.58158C5.22914 4.27642 5.594 4.03532 5.99523 3.87227C6.39645 3.70923 6.82606 3.62747 7.25913 3.63175H3.93779C3.50472 3.62747 3.07511 3.70923 2.67389 3.87227C2.27266 4.03532 1.9078 4.27642 1.60048 4.58158C1.29316 4.88674 1.04949 5.24988 0.883611 5.64995C0.717732 6.05002 0.632945 6.47904 0.634168 6.91213V46.8789C0.634168 48.7123 2.10331 50.2412 3.93779 50.2412H7.25913C5.42465 50.2412 3.95551 48.7123 3.95551 46.8789Z" fill="#AAC8CE"/>
<path d="M8.17251 7.1114C7.99633 7.1114 7.82737 7.04142 7.7028 6.91684C7.57823 6.79227 7.50824 6.62331 7.50824 6.44713V0.905479C7.50824 0.729304 7.57823 0.560345 7.7028 0.43577C7.82737 0.311196 7.99633 0.241211 8.17251 0.241211C8.34868 0.241211 8.51764 0.311196 8.64222 0.43577C8.76679 0.560345 8.83678 0.729304 8.83678 0.905479V6.44713C8.83678 6.62331 8.76679 6.79227 8.64222 6.91684C8.51764 7.04142 8.34868 7.1114 8.17251 7.1114Z" fill="#6D7486"/>
<path d="M8.17251 7.1114C7.99633 7.1114 7.82737 7.04142 7.7028 6.91684C7.57823 6.79227 7.50824 6.62331 7.50824 6.44713V0.905479C7.50824 0.729304 7.57823 0.560345 7.7028 0.43577C7.82737 0.311196 7.99633 0.241211 8.17251 0.241211C8.34868 0.241211 8.51764 0.311196 8.64222 0.43577C8.76679 0.560345 8.83678 0.729304 8.83678 0.905479V6.44713C8.83678 6.62331 8.76679 6.79227 8.64222 6.91684C8.51764 7.04142 8.34868 7.1114 8.17251 7.1114Z" fill="#6D7486"/>
<path d="M15.0945 7.1114C14.9183 7.1114 14.7494 7.04142 14.6248 6.91684C14.5002 6.79227 14.4302 6.62331 14.4302 6.44713V0.905479C14.4302 0.729304 14.5002 0.560345 14.6248 0.43577C14.7494 0.311196 14.9183 0.241211 15.0945 0.241211C15.2707 0.241211 15.4396 0.311196 15.5642 0.43577C15.6888 0.560345 15.7588 0.729304 15.7588 0.905479V6.44713C15.7588 6.62331 15.6888 6.79227 15.5642 6.91684C15.4396 7.04142 15.2707 7.1114 15.0945 7.1114Z" fill="#6D7486"/>
<path d="M22.0167 7.1114C21.8406 7.1114 21.6716 7.04142 21.547 6.91684C21.4225 6.79227 21.3525 6.62331 21.3525 6.44713V0.905479C21.3525 0.729304 21.4225 0.560345 21.547 0.43577C21.6716 0.311196 21.8406 0.241211 22.0167 0.241211C22.1929 0.241211 22.3619 0.311196 22.4865 0.43577C22.611 0.560345 22.681 0.729304 22.681 0.905479V6.44713C22.681 6.62331 22.611 6.79227 22.4865 6.91684C22.3619 7.04142 22.1929 7.1114 22.0167 7.1114Z" fill="#6D7486"/>
<path d="M28.9387 7.1114C28.7626 7.1114 28.5936 7.04142 28.469 6.91684C28.3445 6.79227 28.2745 6.62331 28.2745 6.44713V0.905479C28.2745 0.729304 28.3445 0.560345 28.469 0.43577C28.5936 0.311196 28.7626 0.241211 28.9387 0.241211C29.1149 0.241211 29.2839 0.311196 29.4084 0.43577C29.533 0.560345 29.603 0.729304 29.603 0.905479V6.44713C29.603 6.62331 29.533 6.79227 29.4084 6.91684C29.2839 7.04142 29.1149 7.1114 28.9387 7.1114Z" fill="#6D7486"/>
<path d="M32.984 18.4256H16.3773C16.2011 18.4256 16.0322 18.3556 15.9076 18.231C15.783 18.1064 15.713 17.9375 15.713 17.7613C15.713 17.5851 15.783 17.4162 15.9076 17.2916C16.0322 17.167 16.2011 17.097 16.3773 17.097H32.984C33.1602 17.097 33.3291 17.167 33.4537 17.2916C33.5783 17.4162 33.6483 17.5851 33.6483 17.7613C33.6483 17.9375 33.5783 18.1064 33.4537 18.231C33.3291 18.3556 33.1602 18.4256 32.984 18.4256Z" fill="#8FB1B5"/>
<path d="M8.18348 20.6841C8.09624 20.6842 8.00984 20.6671 7.92925 20.6337C7.84865 20.6003 7.77545 20.5514 7.71384 20.4896L6.65599 19.4316C6.59293 19.3703 6.54269 19.297 6.50819 19.216C6.47368 19.1351 6.4556 19.0481 6.455 18.9601C6.4544 18.8721 6.47129 18.7849 6.50468 18.7035C6.53807 18.6221 6.5873 18.5481 6.64952 18.4859C6.71173 18.4237 6.78569 18.3744 6.8671 18.341C6.9485 18.3076 7.03573 18.2907 7.12372 18.2913C7.21171 18.2919 7.29871 18.31 7.37966 18.3445C7.4606 18.379 7.53389 18.4292 7.59527 18.4923L8.19388 19.0909L9.66978 17.6799C9.7327 17.619 9.80705 17.5711 9.88854 17.539C9.97003 17.507 10.0571 17.4913 10.1446 17.493C10.2322 17.4947 10.3185 17.5137 10.3987 17.5489C10.4789 17.5841 10.5513 17.6348 10.6118 17.6981C10.6724 17.7614 10.7198 17.836 10.7513 17.9177C10.7829 17.9994 10.798 18.0865 10.7958 18.1741C10.7936 18.2616 10.774 18.3478 10.7384 18.4278C10.7027 18.5078 10.6516 18.5799 10.5879 18.6401L8.6426 20.5C8.51908 20.6184 8.35455 20.6843 8.18348 20.6841Z" fill="#D8FF33"/>
<path d="M32.984 29.4966H16.3773C16.2011 29.4966 16.0322 29.4266 15.9076 29.3021C15.783 29.1775 15.713 29.0085 15.713 28.8324C15.713 28.6562 15.783 28.4872 15.9076 28.3626C16.0322 28.2381 16.2011 28.1681 16.3773 28.1681H32.984C33.1602 28.1681 33.3291 28.2381 33.4537 28.3626C33.5783 28.4872 33.6483 28.6562 33.6483 28.8324C33.6483 29.0085 33.5783 29.1775 33.4537 29.3021C33.3291 29.4266 33.1602 29.4966 32.984 29.4966Z" fill="#8FB1B5"/>
<path d="M8.18348 31.7552C8.09624 31.7553 8.00984 31.7381 7.92925 31.7048C7.84865 31.6714 7.77545 31.6224 7.71384 31.5606L6.65599 30.5027C6.59293 30.4413 6.54269 30.368 6.50819 30.2871C6.47368 30.2061 6.4556 30.1192 6.455 30.0312C6.4544 29.9432 6.47129 29.8559 6.50468 29.7745C6.53807 29.6931 6.5873 29.6192 6.64952 29.5569C6.71173 29.4947 6.78569 29.4455 6.8671 29.4121C6.9485 29.3787 7.03573 29.3618 7.12372 29.3624C7.21171 29.363 7.29871 29.381 7.37966 29.4155C7.4606 29.45 7.53389 29.5002 7.59527 29.5633L8.19388 30.1619L9.66978 28.7509C9.7327 28.69 9.80705 28.6421 9.88854 28.6101C9.97003 28.578 10.0571 28.5624 10.1446 28.5641C10.2322 28.5658 10.3185 28.5848 10.3987 28.62C10.4789 28.6552 10.5513 28.7059 10.6118 28.7692C10.6724 28.8325 10.7198 28.9071 10.7513 28.9888C10.7829 29.0704 10.798 29.1576 10.7958 29.2451C10.7936 29.3326 10.774 29.4189 10.7384 29.4989C10.7027 29.5788 10.6516 29.651 10.5879 29.7111L8.6426 31.571C8.51908 31.6894 8.35455 31.7554 8.18348 31.7552Z" fill="#D8FF33"/>
<path d="M26.906 40.5678H16.3773C16.2011 40.5678 16.0322 40.4978 15.9076 40.3732C15.783 40.2487 15.713 40.0797 15.713 39.9035C15.713 39.7274 15.783 39.5584 15.9076 39.4338C16.0322 39.3092 16.2011 39.2393 16.3773 39.2393H26.906C27.0821 39.2393 27.2511 39.3092 27.3757 39.4338C27.5002 39.5584 27.5702 39.7274 27.5702 39.9035C27.5702 40.0797 27.5002 40.2487 27.3757 40.3732C27.2511 40.4978 27.0821 40.5678 26.906 40.5678Z" fill="#8FB1B5"/>
<path d="M8.18348 42.8263C8.09624 42.8264 8.00984 42.8093 7.92925 42.7759C7.84865 42.7425 7.77545 42.6936 7.71384 42.6318L6.65599 41.5739C6.59293 41.5125 6.54269 41.4392 6.50819 41.3583C6.47368 41.2773 6.4556 41.1903 6.455 41.1023C6.4544 41.0143 6.47129 40.9271 6.50468 40.8457C6.53807 40.7643 6.5873 40.6903 6.64952 40.6281C6.71173 40.5659 6.78569 40.5166 6.8671 40.4832C6.9485 40.4498 7.03573 40.4329 7.12372 40.4335C7.21171 40.4341 7.29871 40.4522 7.37966 40.4867C7.4606 40.5212 7.53389 40.5714 7.59527 40.6345L8.19388 41.2331L9.66978 39.8221C9.7327 39.7612 9.80705 39.7133 9.88854 39.6813C9.97003 39.6492 10.0571 39.6336 10.1446 39.6353C10.2322 39.637 10.3185 39.6559 10.3987 39.6911C10.4789 39.7263 10.5513 39.777 10.6118 39.8403C10.6724 39.9036 10.7198 39.9783 10.7513 40.0599C10.7829 40.1416 10.798 40.2287 10.7958 40.3163C10.7936 40.4038 10.774 40.4901 10.7384 40.57C10.7027 40.65 10.6516 40.7221 10.5879 40.7823L8.6426 42.6422C8.51908 42.7606 8.35455 42.8266 8.18348 42.8263Z" fill="#D8FF33"/>
<path d="M25.2342 20.6398H16.3773C16.2011 20.6398 16.0322 20.5698 15.9076 20.4453C15.783 20.3207 15.713 20.1517 15.713 19.9755C15.713 19.7994 15.783 19.6304 15.9076 19.5058C16.0322 19.3813 16.2011 19.3113 16.3773 19.3113H25.2342C25.4104 19.3113 25.5794 19.3813 25.7039 19.5058C25.8285 19.6304 25.8985 19.7994 25.8985 19.9755C25.8985 20.1517 25.8285 20.3207 25.7039 20.4453C25.5794 20.5698 25.4104 20.6398 25.2342 20.6398Z" fill="#8FB1B5"/>
<path d="M25.2342 31.7109H16.3773C16.2011 31.7109 16.0322 31.6409 15.9076 31.5163C15.783 31.3917 15.713 31.2228 15.713 31.0466C15.713 30.8704 15.783 30.7015 15.9076 30.5769C16.0322 30.4523 16.2011 30.3823 16.3773 30.3823H25.2342C25.4104 30.3823 25.5794 30.4523 25.7039 30.5769C25.8285 30.7015 25.8985 30.8704 25.8985 31.0466C25.8985 31.2228 25.8285 31.3917 25.7039 31.5163C25.5794 31.6409 25.4104 31.7109 25.2342 31.7109Z" fill="#8FB1B5"/>
<path d="M25.2342 42.782H16.3773C16.2011 42.782 16.0322 42.712 15.9076 42.5875C15.783 42.4629 15.713 42.2939 15.713 42.1178C15.713 41.9416 15.783 41.7726 15.9076 41.6481C16.0322 41.5235 16.2011 41.4535 16.3773 41.4535H25.2342C25.4104 41.4535 25.5794 41.5235 25.7039 41.6481C25.8285 41.7726 25.8985 41.9416 25.8985 42.1178C25.8985 42.2939 25.8285 42.4629 25.7039 42.5875C25.5794 42.712 25.4104 42.782 25.2342 42.782Z" fill="#8FB1B5"/>
<path d="M3.21374 9.65358C3.03756 9.65358 2.8686 9.5836 2.74403 9.45902C2.61945 9.33445 2.54947 9.16549 2.54947 8.98931V8.29183C2.54947 8.11566 2.61945 7.9467 2.74403 7.82212C2.8686 7.69755 3.03756 7.62756 3.21374 7.62756C3.38991 7.62756 3.55887 7.69755 3.68345 7.82212C3.80802 7.9467 3.87801 8.11566 3.87801 8.29183V8.98931C3.87801 9.16549 3.80802 9.33445 3.68345 9.45902C3.55887 9.5836 3.38991 9.65358 3.21374 9.65358Z" fill="#F4F8FC"/>
<path d="M3.21374 18.1784C3.03756 18.1784 2.8686 18.1084 2.74403 17.9838C2.61945 17.8592 2.54947 17.6903 2.54947 17.5141V11.0929C2.54947 10.9167 2.61945 10.7477 2.74403 10.6231C2.8686 10.4986 3.03756 10.4286 3.21374 10.4286C3.38991 10.4286 3.55887 10.4986 3.68345 10.6231C3.80802 10.7477 3.87801 10.9167 3.87801 11.0929V17.5141C3.87801 17.6903 3.80802 17.8592 3.68345 17.9838C3.55887 18.1084 3.38991 18.1784 3.21374 18.1784Z" fill="#F4F8FC"/>
<path d="M46.3403 30.3862L28.4947 42.105L30.028 44.4377L47.8725 32.7189L46.3403 30.3862Z" fill="#E75163"/>
<path d="M26.9685 39.7726L44.8165 28.0518L46.3496 30.3863L28.5015 42.1071L26.9685 39.7726Z" fill="#FB6771"/>
<path d="M26.9613 39.7712L26.8905 39.9041L24.4138 44.585L30.028 44.4377L26.9613 39.7712Z" fill="#C79A83"/>
</svg>
