<svg width="15" height="21" viewBox="0 0 15 21" fill="none" xmlns="http://www.w3.org/2000/svg">
<path d="M7.42188 4.13477C5.48336 4.13477 3.90625 5.71187 3.90625 7.65039C3.90625 9.58891 5.48336 11.166 7.42188 11.166C9.36039 11.166 10.9375 9.58891 10.9375 7.65039C10.9375 5.71187 9.36039 4.13477 7.42188 4.13477ZM7.42188 10.3848C5.91414 10.3848 4.6875 9.15812 4.6875 7.65039C4.6875 6.14266 5.91414 4.91602 7.42188 4.91602C8.92961 4.91602 10.1562 6.14266 10.1562 7.65039C10.1562 9.15812 8.92961 10.3848 7.42188 10.3848Z" fill="#DEDEDE"/>
<path d="M10.9375 15.3066C11.1532 15.3066 11.3281 15.1318 11.3281 14.916C11.3281 14.7003 11.1532 14.5254 10.9375 14.5254C10.7218 14.5254 10.5469 14.7003 10.5469 14.916C10.5469 15.1318 10.7218 15.3066 10.9375 15.3066Z" fill="white"/>
<path d="M12.7313 11.6399L11.6044 13.2361C11.4799 13.4124 11.522 13.6561 11.6982 13.7805C11.8745 13.905 12.1182 13.8629 12.2426 13.6867L13.3663 12.095C14.3329 10.8041 14.8438 9.26734 14.8438 7.65039C14.8438 3.55793 11.5143 0.228516 7.42188 0.228516C3.32941 0.228516 0 3.55793 0 7.65039C0 9.26734 0.51082 10.8041 1.47742 12.095L6.66793 19.4473H1.5625C1.3468 19.4473 1.17188 19.6221 1.17188 19.8379C1.17188 20.0536 1.3468 20.2285 1.5625 20.2285H13.2812C13.497 20.2285 13.6719 20.0536 13.6719 19.8379C13.6719 19.6221 13.497 19.4473 13.2812 19.4473H8.17582L10.2161 16.5573C10.3405 16.381 10.2985 16.1373 10.1223 16.0129C9.94598 15.8884 9.70227 15.9304 9.57789 16.1067L7.42188 19.1606C7.42188 19.1606 2.10813 11.6339 2.10586 11.6309C1.23934 10.4753 0.78125 9.09887 0.78125 7.65039C0.78125 3.98875 3.76023 1.00977 7.42188 1.00977C11.0835 1.00977 14.0625 3.98875 14.0625 7.65039C14.0625 9.09887 13.6044 10.4753 12.7379 11.6309C12.7356 11.6339 12.7334 11.6369 12.7313 11.6399Z" fill="#DEDEDE"/>
</svg>
