<svg width="48" height="51" viewBox="0 0 48 51" fill="none" xmlns="http://www.w3.org/2000/svg">
<path d="M24.0001 46.0681C23.7715 46.0681 23.5522 45.9772 23.3905 45.8156C23.2289 45.6539 23.138 45.4346 23.138 45.206V40.0336C23.138 39.8049 23.2289 39.5857 23.3905 39.424C23.5522 39.2623 23.7715 39.1715 24.0001 39.1715C24.2287 39.1715 24.448 39.2623 24.6097 39.424C24.7713 39.5857 24.8622 39.8049 24.8622 40.0336V45.206C24.8622 45.4346 24.7713 45.6539 24.6097 45.8156C24.448 45.9772 24.2287 46.0681 24.0001 46.0681Z" fill="#505860"/>
<path d="M36.0691 46.0681C35.9556 46.0688 35.8431 46.047 35.7381 46.0041C35.6331 45.9612 35.5375 45.898 35.457 45.8181L31.1467 41.5077C31.0668 41.4272 31.0035 41.3317 30.9606 41.2266C30.9177 41.1216 30.896 41.0091 30.8967 40.8957V36.5853C30.8967 36.3567 30.9875 36.1374 31.1491 35.9758C31.3108 35.8141 31.5301 35.7233 31.7587 35.7233C31.9874 35.7233 32.2066 35.8141 32.3683 35.9758C32.53 36.1374 32.6208 36.3567 32.6208 36.5853V40.5422L36.6811 44.594C36.7619 44.6741 36.8261 44.7694 36.8698 44.8745C36.9136 44.9795 36.9361 45.0922 36.9361 45.206C36.9361 45.3198 36.9136 45.4325 36.8698 45.5376C36.8261 45.6426 36.7619 45.738 36.6811 45.8181C36.6006 45.898 36.5051 45.9612 36.4 46.0041C36.295 46.047 36.1825 46.0688 36.0691 46.0681Z" fill="#505860"/>
<path d="M11.9312 46.0681C11.8177 46.0688 11.7052 46.047 11.6002 46.0041C11.4952 45.9612 11.3996 45.898 11.3191 45.8181C11.2383 45.738 11.1742 45.6426 11.1304 45.5376C11.0866 45.4325 11.0641 45.3198 11.0641 45.206C11.0641 45.0922 11.0866 44.9795 11.1304 44.8745C11.1742 44.7694 11.2383 44.6741 11.3191 44.594L15.3794 40.5422V36.5853C15.3794 36.3567 15.4703 36.1374 15.6319 35.9758C15.7936 35.8141 16.0129 35.7233 16.2415 35.7233C16.4701 35.7233 16.6894 35.8141 16.8511 35.9758C17.0127 36.1374 17.1036 36.3567 17.1036 36.5853V40.8957C17.1042 41.0091 17.0825 41.1216 17.0396 41.2266C16.9967 41.3317 16.9335 41.4272 16.8536 41.5077L12.5432 45.8181C12.4627 45.898 12.3671 45.9612 12.2621 46.0041C12.1571 46.047 12.0446 46.0688 11.9312 46.0681Z" fill="#505860"/>
<path d="M24.0001 11.5853C23.7715 11.5853 23.5522 11.4944 23.3905 11.3328C23.2289 11.1711 23.138 10.9518 23.138 10.7232V5.55079C23.138 5.32215 23.2289 5.10288 23.3905 4.94122C23.5522 4.77955 23.7715 4.68872 24.0001 4.68872C24.2287 4.68872 24.448 4.77955 24.6097 4.94122C24.7713 5.10288 24.8622 5.32215 24.8622 5.55079V10.7232C24.8622 10.9518 24.7713 11.1711 24.6097 11.3328C24.448 11.4944 24.2287 11.5853 24.0001 11.5853Z" fill="#505860"/>
<path d="M31.7587 15.0335C31.5301 15.0335 31.3108 14.9427 31.1491 14.781C30.9875 14.6194 30.8967 14.4001 30.8967 14.1715V9.86112C30.896 9.74767 30.9177 9.6352 30.9606 9.53017C31.0035 9.42514 31.0668 9.3296 31.1467 9.24905L35.457 4.93871C35.6193 4.77638 35.8395 4.68518 36.0691 4.68518C36.2986 4.68518 36.5188 4.77638 36.6811 4.93871C36.8435 5.10104 36.9347 5.32121 36.9347 5.55078C36.9347 5.78035 36.8435 6.00052 36.6811 6.16285L32.6208 10.2146V14.1715C32.6208 14.4001 32.53 14.6194 32.3683 14.781C32.2066 14.9427 31.9874 15.0335 31.7587 15.0335Z" fill="#505860"/>
<path d="M16.2415 15.0335C16.0129 15.0335 15.7936 14.9427 15.6319 14.781C15.4702 14.6194 15.3794 14.4001 15.3794 14.1715V10.2146L11.3191 6.16285C11.2387 6.08247 11.1749 5.98705 11.1314 5.88203C11.0879 5.77701 11.0656 5.66445 11.0656 5.55078C11.0656 5.32121 11.1567 5.10104 11.3191 4.93871C11.4814 4.77638 11.7016 4.68518 11.9311 4.68518C12.0448 4.68518 12.1574 4.70757 12.2624 4.75107C12.3674 4.79457 12.4628 4.85833 12.5432 4.93871L16.8536 9.24905C16.9335 9.3296 16.9967 9.42514 17.0396 9.53017C17.0825 9.6352 17.1042 9.74767 17.1036 9.86112V14.1715C17.1036 14.4001 17.0127 14.6194 16.8511 14.781C16.6894 14.9427 16.4701 15.0335 16.2415 15.0335Z" fill="#505860"/>
<path d="M0.724243 13.3094H4.17252V16.7577H0.724243V13.3094Z" fill="#333F47"/>
<path d="M43.8277 40.8956H47.276V44.3439H43.8277V40.8956Z" fill="#333F47"/>
<path d="M11.0691 21.9302H3.31046C3.08183 21.9302 2.86256 21.8394 2.70089 21.6777C2.53922 21.516 2.44839 21.2968 2.44839 21.0681C2.44839 20.8395 2.53922 20.6202 2.70089 20.4585C2.86256 20.2969 3.08183 20.2061 3.31046 20.2061H11.0691C11.2977 20.2061 11.517 20.2969 11.6787 20.4585C11.8403 20.6202 11.9312 20.8395 11.9312 21.0681C11.9312 21.2968 11.8403 21.516 11.6787 21.6777C11.517 21.8394 11.2977 21.9302 11.0691 21.9302Z" fill="#505860"/>
<path d="M11.0691 30.5508H3.31046C3.08183 30.5508 2.86256 30.46 2.70089 30.2983C2.53922 30.1366 2.44839 29.9174 2.44839 29.6887C2.44839 29.4601 2.53922 29.2408 2.70089 29.0792C2.86256 28.9175 3.08183 28.8267 3.31046 28.8267H11.0691C11.2977 28.8267 11.517 28.9175 11.6787 29.0792C11.8403 29.2408 11.9312 29.4601 11.9312 29.6887C11.9312 29.9174 11.8403 30.1366 11.6787 30.2983C11.517 30.46 11.2977 30.5508 11.0691 30.5508Z" fill="#505860"/>
<path d="M44.6898 21.9302H36.9311C36.7025 21.9302 36.4832 21.8394 36.3216 21.6777C36.1599 21.516 36.0691 21.2968 36.0691 21.0681C36.0691 20.8395 36.1599 20.6202 36.3216 20.4585C36.4832 20.2969 36.7025 20.2061 36.9311 20.2061H44.6898C44.9184 20.2061 45.1377 20.2969 45.2993 20.4585C45.461 20.6202 45.5518 20.8395 45.5518 21.0681C45.5518 21.2968 45.461 21.516 45.2993 21.6777C45.1377 21.8394 44.9184 21.9302 44.6898 21.9302Z" fill="#505860"/>
<path d="M44.6898 30.5508H36.9311C36.7025 30.5508 36.4832 30.46 36.3216 30.2983C36.1599 30.1366 36.0691 29.9174 36.0691 29.6887C36.0691 29.4601 36.1599 29.2408 36.3216 29.0792C36.4832 28.9175 36.7025 28.8267 36.9311 28.8267H44.6898C44.9184 28.8267 45.1377 28.9175 45.2993 29.0792C45.461 29.2408 45.5518 29.4601 45.5518 29.6887C45.5518 29.9174 45.461 30.1366 45.2993 30.2983C45.1377 30.46 44.9184 30.5508 44.6898 30.5508Z" fill="#505860"/>
<path d="M24.0001 50.3785C25.4284 50.3785 26.5863 49.2206 26.5863 47.7923C26.5863 46.3639 25.4284 45.2061 24.0001 45.2061C22.5718 45.2061 21.4139 46.3639 21.4139 47.7923C21.4139 49.2206 22.5718 50.3785 24.0001 50.3785Z" fill="#F7636D"/>
<path d="M36.0691 47.7922C37.4974 47.7922 38.6553 46.6343 38.6553 45.206C38.6553 43.7776 37.4974 42.6198 36.0691 42.6198C34.6407 42.6198 33.4829 43.7776 33.4829 45.206C33.4829 46.6343 34.6407 47.7922 36.0691 47.7922Z" fill="#F7636D"/>
<path d="M11.9311 47.7922C13.3595 47.7922 14.5174 46.6343 14.5174 45.206C14.5174 43.7776 13.3595 42.6198 11.9311 42.6198C10.5028 42.6198 9.34494 43.7776 9.34494 45.206C9.34494 46.6343 10.5028 47.7922 11.9311 47.7922Z" fill="#F7636D"/>
<path d="M24.0001 5.55083C25.4284 5.55083 26.5863 4.39295 26.5863 2.96462C26.5863 1.5363 25.4284 0.378418 24.0001 0.378418C22.5718 0.378418 21.4139 1.5363 21.4139 2.96462C21.4139 4.39295 22.5718 5.55083 24.0001 5.55083Z" fill="#F7636D"/>
<path d="M36.0691 8.13701C37.4974 8.13701 38.6553 6.97913 38.6553 5.55081C38.6553 4.12248 37.4974 2.9646 36.0691 2.9646C34.6407 2.9646 33.4829 4.12248 33.4829 5.55081C33.4829 6.97913 34.6407 8.13701 36.0691 8.13701Z" fill="#F7636D"/>
<path d="M11.9311 8.13701C13.3595 8.13701 14.5174 6.97913 14.5174 5.55081C14.5174 4.12248 13.3595 2.9646 11.9311 2.9646C10.5028 2.9646 9.34494 4.12248 9.34494 5.55081C9.34494 6.97913 10.5028 8.13701 11.9311 8.13701Z" fill="#F7636D"/>
<path d="M3.31045 23.6542C4.73877 23.6542 5.89666 22.4963 5.89666 21.068C5.89666 19.6397 4.73877 18.4818 3.31045 18.4818C1.88213 18.4818 0.724243 19.6397 0.724243 21.068C0.724243 22.4963 1.88213 23.6542 3.31045 23.6542Z" fill="#F7636D"/>
<path d="M3.31045 32.275C4.73877 32.275 5.89666 31.1171 5.89666 29.6887C5.89666 28.2604 4.73877 27.1025 3.31045 27.1025C1.88213 27.1025 0.724243 28.2604 0.724243 29.6887C0.724243 31.1171 1.88213 32.275 3.31045 32.275Z" fill="#F7636D"/>
<path d="M44.6898 23.6542C46.1181 23.6542 47.276 22.4963 47.276 21.068C47.276 19.6397 46.1181 18.4818 44.6898 18.4818C43.2614 18.4818 42.1035 19.6397 42.1035 21.068C42.1035 22.4963 43.2614 23.6542 44.6898 23.6542Z" fill="#F7636D"/>
<path d="M44.6898 32.275C46.1181 32.275 47.276 31.1171 47.276 29.6887C47.276 28.2604 46.1181 27.1025 44.6898 27.1025C43.2614 27.1025 42.1035 28.2604 42.1035 29.6887C42.1035 31.1171 43.2614 32.275 44.6898 32.275Z" fill="#F7636D"/>
<path d="M11.0691 19.4043V31.3526C11.0697 31.9573 11.2293 32.5512 11.5319 33.0747C11.8345 33.5982 12.2695 34.033 12.7932 34.3353L22.3191 39.6112C22.8244 39.8858 23.3904 40.0297 23.9656 40.0297C24.5408 40.0297 25.1068 39.8858 25.6122 39.6112L35.207 34.3353C35.7307 34.033 36.1656 33.5982 36.4683 33.0747C36.7709 32.5512 36.9305 31.9573 36.9311 31.3526V19.4043C36.9305 18.7996 36.7709 18.2057 36.4683 17.6822C36.1656 17.1586 35.7307 16.7239 35.207 16.4215L25.6466 11.1457C25.1413 10.871 24.5753 10.7272 24.0001 10.7272C23.4249 10.7272 22.8589 10.871 22.3535 11.1457L12.7932 16.4215C12.2695 16.7239 11.8345 17.1586 11.5319 17.6822C11.2293 18.2057 11.0697 18.7996 11.0691 19.4043Z" fill="#F7D079"/>
<path d="M28.2329 36.1629C27.7275 36.4375 27.1615 36.5814 26.5863 36.5814C26.0111 36.5814 25.4451 36.4375 24.9398 36.1629L15.3794 30.887C14.8557 30.5847 14.4208 30.1499 14.1181 29.6264C13.8155 29.1029 13.6559 28.509 13.6553 27.9043V15.9646L12.7932 16.4215C12.2695 16.7238 11.8345 17.1586 11.5319 17.6821C11.2293 18.2057 11.0697 18.7996 11.0691 19.4043V31.3525C11.0697 31.9572 11.2293 32.5511 11.5319 33.0747C11.8345 33.5982 12.2695 34.0329 12.7932 34.3353L22.3191 39.6111C22.8244 39.8858 23.3904 40.0297 23.9656 40.0297C24.5408 40.0297 25.1068 39.8858 25.6122 39.6111L35.207 34.3353C35.7307 34.0329 36.1656 33.5982 36.4683 33.0747C36.7709 32.5511 36.9305 31.9572 36.9311 31.3525L28.2329 36.1629Z" fill="#F9B15A"/>
<path d="M20.5518 21.9302V28.8267C20.5518 29.0554 20.461 29.2746 20.2993 29.4363C20.1377 29.598 19.9184 29.6888 19.6898 29.6888C19.5393 29.6879 19.3917 29.6476 19.2617 29.572C19.1316 29.4964 19.0236 29.3881 18.9484 29.2578L15.3794 24.5164V28.8267C15.3794 29.0554 15.2886 29.2746 15.1269 29.4363C14.9652 29.598 14.746 29.6888 14.5173 29.6888C14.2887 29.6888 14.0694 29.598 13.9078 29.4363C13.7461 29.2746 13.6553 29.0554 13.6553 28.8267V21.9302C13.6553 21.7015 13.7461 21.4823 13.9078 21.3206C14.0694 21.1589 14.2887 21.0681 14.5173 21.0681C14.6678 21.069 14.8154 21.1093 14.9454 21.1849C15.0755 21.2605 15.1835 21.3689 15.2587 21.4991L18.8277 26.2405V21.9302C18.8277 21.7015 18.9185 21.4823 19.0802 21.3206C19.2418 21.1589 19.4611 21.0681 19.6898 21.0681C19.9184 21.0681 20.1377 21.1589 20.2993 21.3206C20.461 21.4823 20.5518 21.7015 20.5518 21.9302Z" fill="#F2F2F2"/>
<path d="M26.5863 22.7923C26.8149 22.7923 27.0342 22.7014 27.1959 22.5398C27.3576 22.3781 27.4484 22.1588 27.4484 21.9302C27.4484 21.7015 27.3576 21.4823 27.1959 21.3206C27.0342 21.1589 26.8149 21.0681 26.5863 21.0681H23.138C22.9094 21.0681 22.6901 21.1589 22.5285 21.3206C22.3668 21.4823 22.276 21.7015 22.276 21.9302V28.8267C22.276 29.0554 22.3668 29.2746 22.5285 29.4363C22.6901 29.598 22.9094 29.6888 23.138 29.6888C23.3667 29.6888 23.5859 29.598 23.7476 29.4363C23.9093 29.2746 24.0001 29.0554 24.0001 28.8267V26.2405H26.5863C26.8149 26.2405 27.0342 26.1497 27.1959 25.988C27.3576 25.8264 27.4484 25.6071 27.4484 25.3785C27.4484 25.1498 27.3576 24.9306 27.1959 24.7689C27.0342 24.6072 26.8149 24.5164 26.5863 24.5164H24.0001V22.7923H26.5863Z" fill="#F2F2F2"/>
<path d="M33.4829 21.0681H30.0346C29.8059 21.0681 29.5867 21.1589 29.425 21.3206C29.2633 21.4823 29.1725 21.7015 29.1725 21.9302C29.1725 22.1588 29.2633 22.3781 29.425 22.5398C29.5867 22.7014 29.8059 22.7923 30.0346 22.7923H30.8967V28.8267C30.8967 29.0554 30.9875 29.2746 31.1491 29.4363C31.3108 29.598 31.5301 29.6888 31.7587 29.6888C31.9874 29.6888 32.2066 29.598 32.3683 29.4363C32.53 29.2746 32.6208 29.0554 32.6208 28.8267V22.7923H33.4829C33.7115 22.7923 33.9308 22.7014 34.0924 22.5398C34.2541 22.3781 34.3449 22.1588 34.3449 21.9302C34.3449 21.7015 34.2541 21.4823 34.0924 21.3206C33.9308 21.1589 33.7115 21.0681 33.4829 21.0681Z" fill="#F2F2F2"/>
</svg>
