<svg width="18" height="21" viewBox="0 0 18 21" fill="none" xmlns="http://www.w3.org/2000/svg">
<path 
d="M15.5834 7.02315C15.5834 3.24469 12.5204 0.181641 8.74192 0.181641C4.96346 0.181641 1.90042 3.24469 1.90042 7.02315C0.923603 7.14477 0 7.78331 0 9.26564V12.8384C0 14.5108 1.17066 15.1189 2.2805 15.1189H3.38274C3.59265 15.1189 3.76283 14.9487 3.76283 14.7388V7.38042C3.76283 7.17052 3.59265 7.00034 3.38274 7.00034H2.66059C2.66059 3.64173 5.38331 0.919003 8.74192 0.919003C12.1005 0.919003 14.8233 3.64173 14.8233 7.00034H14.1011C13.8912 7.00034 13.721 7.17052 13.721 7.38042V14.7274C13.721 14.9373 13.8912 15.1075 14.1011 15.1075H14.8233C14.7168 17.7187 13.4626 18.3306 10.9578 18.4409V18.1862C10.9578 17.7664 10.6175 17.426 10.1976 17.426H7.80692C7.38707 17.426 7.04675 17.7664 7.04675 18.1862V19.4215C7.04675 19.8413 7.38707 20.1816 7.80692 20.1816H10.2052C10.6251 20.1816 10.9654 19.8413 10.9654 19.4215V19.201C13.3751 19.0908 15.458 18.5929 15.5834 15.0847C16.5602 14.9631 17.4838 14.3246 17.4838 12.8422V9.26944C17.4838 7.77951 16.564 7.14477 15.5834 7.02315ZM3.00266 7.7339V14.3474H2.2615C1.69897 14.3474 0.741163 14.1497 0.741163 12.827V9.25424C0.741163 7.94295 1.68757 7.7339 2.2615 7.7339H3.00266ZM10.2052 18.8475V19.4253H7.80692V18.19H10.2052V18.8475ZM16.7237 12.8384C16.7237 14.1497 15.7773 14.3588 15.2033 14.3588H14.4812V7.76051H15.2223C15.7849 7.76051 16.7427 7.95815 16.7427 9.28084L16.7237 12.8384Z" fill="#DEDEDE"/>
</svg>
