<svg width="50" height="51" viewBox="0 0 50 51" fill="none" xmlns="http://www.w3.org/2000/svg">
<path d="M43.7796 17.3008H4.30781C3.33336 17.3008 2.54346 18.0907 2.54346 19.0651V23.8046H45.5441V19.0651C45.544 18.0908 44.7541 17.3008 43.7796 17.3008Z" fill="#FFB125"/>
<path d="M29.4495 7.50243L25.8749 43.6891C25.7851 44.5981 24.9755 45.2622 24.0664 45.1724L5.95464 43.3833C5.04561 43.2935 4.38152 42.4838 4.47133 41.5747L8.04588 5.38818C8.13569 4.47914 8.94537 3.81505 9.8544 3.90486L27.9662 5.69401C28.8751 5.78372 29.5392 6.5934 29.4495 7.50243Z" fill="#B6FA4C"/>
<path d="M27.9662 5.69401L9.85443 3.90486C8.94539 3.81505 8.13572 4.47914 8.0459 5.38818L7.72522 8.63476C7.99692 8.49675 8.30924 8.43074 8.63494 8.46291L26.7467 10.2521C27.6558 10.3419 28.3198 11.1515 28.23 12.0606L24.9762 45.0008C25.4626 44.7536 25.8173 44.2725 25.8749 43.6893L29.4494 7.50263C29.5393 6.5935 28.8751 5.78382 27.9662 5.69401Z" fill="#A8E83A"/>
<path d="M9.9656 10.5194L7.35792 36.9185C7.32064 37.2964 7.49849 37.6647 7.82075 37.8655C8.70873 38.4192 9.39633 39.2497 9.77417 40.2248C9.91002 40.5753 10.2344 40.817 10.6084 40.854L19.9975 41.7814C20.3715 41.8184 20.737 41.6448 20.9387 41.3276C21.5 40.4454 22.3368 39.7653 23.316 39.3962C23.6713 39.2622 23.9178 38.9359 23.9551 38.5581L26.5628 12.1589C26.6001 11.7811 26.4222 11.4128 26.0999 11.2119C25.212 10.6583 24.5244 9.82779 24.1465 8.85265C24.0107 8.50226 23.6863 8.26047 23.3123 8.22348L13.9232 7.29606C13.5492 7.25907 13.1837 7.43269 12.982 7.74983C12.4207 8.63211 11.5839 9.31214 10.6047 9.68132C10.2495 9.8153 10.003 10.1416 9.9656 10.5194Z" fill="#77DD00"/>
<path d="M26.1001 11.2119C25.2121 10.6583 24.5245 9.82779 24.1467 8.85265C24.0108 8.50216 23.6864 8.26047 23.3124 8.22348L13.9233 7.29606C13.5493 7.25907 13.1838 7.43269 12.982 7.74983C12.4208 8.63211 11.5839 9.31214 10.6048 9.68132C10.2494 9.8153 10.0029 10.1416 9.96565 10.5194L9.86639 11.5244L22.032 12.6886C22.406 12.7256 22.7306 12.9672 22.8663 13.3177C23.2441 14.2928 23.9317 15.1234 24.8197 15.677C25.142 15.8779 25.3198 16.2462 25.2826 16.624L23.0208 39.5199C23.1178 39.4758 23.216 39.434 23.3161 39.3963C23.6714 39.2623 23.9179 38.936 23.9552 38.5581L26.5628 12.159C26.6002 11.7811 26.4223 11.4128 26.1001 11.2119Z" fill="#73CC00"/>
<path d="M44.8063 12.8937L24.3289 42.9424C23.8145 43.6972 22.7856 43.8922 22.0308 43.3778L6.99107 33.1286C6.23628 32.6142 6.04131 31.5853 6.55569 30.8305L27.0332 0.78178C27.5476 0.0269915 28.5766 -0.167977 29.3314 0.346397L44.371 10.5956C45.1258 11.11 45.3207 12.1388 44.8063 12.8937Z" fill="#B6FA4C"/>
<path d="M44.3711 10.5956L29.3314 0.346423C28.5766 -0.167951 27.5476 0.0269193 27.0333 0.781806L25.2817 3.3521C25.4337 3.39961 25.5814 3.46965 25.7199 3.56399L40.7596 13.8132C41.5144 14.3276 41.7094 15.3565 41.195 16.1113L22.4691 43.5898C23.1459 43.8015 23.9089 43.5589 24.329 42.9425L44.8064 12.8937C45.3207 12.1389 45.1259 11.11 44.3711 10.5956Z" fill="#A8E83A"/>
<path d="M26.2595 6.20551L11.3206 28.1268C11.1067 28.4406 11.0865 28.8491 11.273 29.1798C11.7872 30.0912 11.9926 31.1496 11.857 32.1866C11.8083 32.5593 11.9772 32.927 12.2878 33.1386L20.0843 38.4517C20.3949 38.6634 20.7989 38.6861 21.1279 38.5044C22.0434 37.999 23.1037 37.8031 24.14 37.9482C24.5161 38.0009 24.8888 37.8327 25.1026 37.5189L40.0415 15.5976C40.2554 15.2838 40.2756 14.8754 40.089 14.5447C39.5748 13.6333 39.3693 12.5748 39.505 11.5379C39.5537 11.1653 39.3848 10.7976 39.0742 10.586L31.2777 5.27277C30.9671 5.06108 30.5631 5.03836 30.2341 5.22004C29.3186 5.72547 28.2583 5.92132 27.222 5.77622C26.846 5.7234 26.4732 5.89171 26.2595 6.20551Z" fill="#77DD00"/>
<path d="M40.089 14.5446C39.5748 13.6333 39.3694 12.5748 39.505 11.5379C39.5537 11.1653 39.3848 10.7976 39.0742 10.5859L31.2777 5.27274C30.9671 5.06114 30.5631 5.03832 30.2341 5.22001C29.3186 5.72543 28.2583 5.92129 27.222 5.77609C26.8459 5.72347 26.4732 5.89168 26.2593 6.20547L25.6368 7.11903L35.3806 13.6872C35.6912 13.8988 35.8602 14.2665 35.8114 14.6391C35.6759 15.676 35.8814 16.7344 36.3954 17.6458C36.5819 17.9766 36.5617 18.3851 36.3478 18.6988L23.258 37.9073C23.5514 37.8944 23.8466 37.9072 24.1401 37.9483C24.5161 38.001 24.8889 37.8327 25.1027 37.5189L40.0415 15.5976C40.2553 15.2838 40.2756 14.8754 40.089 14.5446Z" fill="#73CC00"/>
<path d="M27.9689 25.1819C30.9238 25.1819 33.3192 22.7865 33.3192 19.8316C33.3192 16.8767 30.9238 14.4813 27.9689 14.4813C25.014 14.4813 22.6186 16.8767 22.6186 19.8316C22.6186 22.7865 25.014 25.1819 27.9689 25.1819Z" fill="#B6FA4C"/>
<path d="M44.3909 50.4241H3.17285C1.76755 50.4241 0.628235 49.2849 0.628235 47.8795V22.6976C0.628235 21.2923 1.76745 20.153 3.17285 20.153H44.3909C45.7962 20.153 46.9355 21.2922 46.9355 22.6976V47.8795C46.9355 49.2849 45.7963 50.4241 44.3909 50.4241Z" fill="#FFB125"/>
<path d="M44.3909 20.153H39.7617C41.167 20.153 42.3063 21.2923 42.3063 22.6976V47.8795C42.3063 49.2848 41.167 50.4241 39.7617 50.4241H44.3909C45.7962 50.4241 46.9355 49.2849 46.9355 47.8795V22.6976C46.9355 21.2923 45.7962 20.153 44.3909 20.153Z" fill="#FF901D"/>
<path d="M48.4501 30.4246H39.1731C36.4867 30.4246 34.309 32.6023 34.309 35.2886C34.309 37.975 36.4867 40.1527 39.1731 40.1527H48.4501C48.9593 40.1527 49.372 39.7399 49.372 39.2308V31.3465C49.372 30.8374 48.9593 30.4246 48.4501 30.4246Z" fill="#FF6D3A"/>
<path d="M48.4502 30.4246H43.8045C44.3136 30.4246 44.7264 30.8373 44.7264 31.3465V37.9875C44.7264 38.5305 44.2862 38.9707 43.7432 38.9707H39.173C36.6868 38.9707 34.6377 37.105 34.3459 34.6975C34.3224 34.8914 34.309 35.0884 34.309 35.2885C34.309 37.9749 36.4867 40.1526 39.173 40.1526H43.8044H48.4501C48.9592 40.1526 49.372 39.7399 49.372 39.2307V38.0488V31.3465C49.3721 30.8374 48.9593 30.4246 48.4502 30.4246Z" fill="#ED5729"/>
<path d="M44.3909 20.153H3.17285C1.76755 20.153 0.628235 21.2923 0.628235 22.6976V25.4862H46.9355V22.6976C46.9355 21.2923 45.7963 20.153 44.3909 20.153Z" fill="#FF6D3A"/>
<path d="M46.5009 21.275C46.4094 21.1396 46.3053 21.0135 46.1902 20.8984C46.1888 20.897 46.1874 20.8958 46.1861 20.8945C46.072 20.7809 45.9474 20.678 45.8135 20.5876C45.7797 20.5648 45.7453 20.5427 45.7102 20.5214C45.6582 20.4899 45.6046 20.4607 45.5502 20.4327C45.515 20.4146 45.4793 20.3974 45.4431 20.3809C45.1223 20.2349 44.7662 20.153 44.3908 20.153H39.7618C41.167 20.1531 42.3062 21.2923 42.3062 22.6976V25.486H46.9354V22.6976C46.9354 22.2584 46.8242 21.8452 46.6283 21.4847C46.5893 21.4127 46.5467 21.3426 46.5009 21.275Z" fill="#ED5729"/>
<path d="M3.17285 50.424H44.3909C45.7962 50.424 46.9355 49.2847 46.9355 47.8794V45.0908H0.628235V47.8794C0.628235 49.2847 1.76745 50.424 3.17285 50.424Z" fill="#FF6D3A"/>
<path d="M42.3063 45.0908V47.8794C42.3063 47.8809 42.3063 47.8823 42.3063 47.8837C42.3059 48.1187 42.1091 48.3063 41.8741 48.3063H3.17285C1.76755 48.3063 0.628235 47.167 0.628235 45.7617V47.8793C0.628235 49.2848 1.76745 50.424 3.17285 50.424H39.7617H44.391C44.4413 50.424 44.4911 50.4221 44.5405 50.4193C44.556 50.4184 44.5713 50.4169 44.5867 50.4158C44.6212 50.4131 44.6555 50.41 44.6897 50.4059C44.7066 50.404 44.7235 50.4018 44.7404 50.3995C44.7744 50.3949 44.808 50.3894 44.8414 50.3835C44.8563 50.3808 44.8713 50.3785 44.886 50.3755C44.9333 50.3662 44.9803 50.3559 45.0267 50.3439C45.0267 50.3439 45.0268 50.3439 45.0269 50.3439C45.0472 50.3387 45.0671 50.3325 45.0873 50.3268C45.1879 50.2982 45.2863 50.2644 45.3815 50.2241C45.4196 50.208 45.4571 50.1911 45.4942 50.1732C45.5313 50.1553 45.5679 50.1366 45.6039 50.117L45.604 50.1169C45.676 50.0778 45.746 50.0353 45.8136 49.9896L45.8137 49.9895L45.8138 49.9894C45.8715 49.9505 45.927 49.9089 45.981 49.8655C45.9835 49.8634 45.9862 49.8614 45.9886 49.8594C46.0434 49.8151 46.0962 49.7685 46.1471 49.7199C46.207 49.6626 46.2642 49.6026 46.3183 49.5399V49.5398C46.4029 49.4416 46.4803 49.337 46.5493 49.2267C46.5512 49.2237 46.5532 49.2208 46.555 49.2178C46.5804 49.1768 46.605 49.1353 46.6281 49.0928C46.6281 49.0927 46.6282 49.0926 46.6283 49.0924V49.0923C46.6898 48.9791 46.7427 48.8604 46.7867 48.7376C46.7917 48.7236 46.7962 48.7093 46.8011 48.6953C46.8117 48.6639 46.8218 48.6322 46.8313 48.6003C46.836 48.5841 46.8406 48.5679 46.8451 48.5516C46.8539 48.5195 46.862 48.4871 46.8694 48.4545C46.8729 48.4396 46.8766 48.4248 46.8798 48.4098C46.8897 48.3629 46.8987 48.3156 46.906 48.2678C46.906 48.2675 46.9061 48.2673 46.9061 48.267C46.9061 48.2669 46.9061 48.2667 46.9061 48.2666C46.9147 48.2107 46.9207 48.1539 46.9255 48.0969C46.9267 48.0824 46.9278 48.068 46.9288 48.0535C46.9328 47.996 46.9354 47.938 46.9354 47.8794V45.7618V45.0909L42.3063 45.0908Z" fill="#ED5729"/>
<path d="M39.3464 37.5477C40.5937 37.5477 41.6048 36.5365 41.6048 35.2892C41.6048 34.0419 40.5937 33.0308 39.3464 33.0308C38.099 33.0308 37.0879 34.0419 37.0879 35.2892C37.0879 36.5365 38.099 37.5477 39.3464 37.5477Z" fill="#F2F2F2"/>
</svg>
