<svg width="21" height="21" viewBox="0 0 21 21" fill="none" xmlns="http://www.w3.org/2000/svg">
<path d="M10.1622 0.844727C4.64794 0.844727 0.16217 5.3305 0.16217 10.8447C0.16217 12.7259 0.684863 14.552 1.6764 16.1378C1.2814 17.5217 0.56794 20.1393 0.560247 20.1666C0.523324 20.302 0.56294 20.4466 0.664093 20.544C0.765247 20.6413 0.911401 20.6759 1.04448 20.6351L5.00832 19.4159C6.56102 20.3513 8.33909 20.8447 10.1622 20.8447C15.6764 20.8447 20.1622 16.359 20.1622 10.8447C20.1622 5.3305 15.6764 0.844727 10.1622 0.844727ZM10.1622 20.0755C8.42409 20.0755 6.73102 19.5897 5.26563 18.6713C5.20371 18.6324 5.13256 18.6128 5.0614 18.6128C5.02332 18.6128 4.98525 18.6186 4.94832 18.6297L1.48717 19.6951C1.7414 18.767 2.19832 17.107 2.46332 16.1836C2.49409 16.0766 2.47679 15.9613 2.4164 15.8678C1.44486 14.3728 0.931401 12.6359 0.931401 10.8447C0.931401 5.75511 5.07256 1.61396 10.1622 1.61396C15.2518 1.61396 19.3929 5.75511 19.3929 10.8447C19.3929 15.9343 15.2518 20.0755 10.1622 20.0755Z" fill="#FF014F"/>
<path d="M16.6949 13.2008C15.9849 12.8066 15.3802 12.4112 14.9391 12.1227C14.6022 11.9027 14.3587 11.7439 14.1802 11.6543C13.6814 11.4054 13.3033 11.5812 13.1595 11.7266C13.1414 11.7446 13.1252 11.7643 13.1114 11.785C12.5933 12.5623 11.9168 13.3058 11.7187 13.3458C11.4899 13.31 10.4187 12.7012 9.35409 11.8146C8.26717 10.9089 7.58332 10.0416 7.48294 9.4508C8.18025 8.73311 8.4314 8.28157 8.4314 7.76772C8.4314 7.23811 7.19602 5.02695 6.97255 4.80349C6.74832 4.57965 6.24332 4.54465 5.4714 4.69849C5.39717 4.71349 5.32871 4.75003 5.27486 4.80349C5.1814 4.89695 2.99448 7.12657 4.03371 9.82888C5.17448 12.7946 8.10255 16.242 11.8356 16.802C12.2599 16.8654 12.6576 16.897 13.0299 16.897C15.226 16.897 16.5222 15.792 16.8872 13.6C16.9145 13.4396 16.8372 13.2796 16.6949 13.2008ZM11.9499 16.0412C8.00217 15.4493 5.51563 11.5381 4.75178 9.55272C3.99409 7.58349 5.3914 5.82772 5.74217 5.4308C6.02755 5.38234 6.32794 5.36195 6.45332 5.38157C6.71525 5.7458 7.62217 7.45926 7.66217 7.76772C7.66217 7.96965 7.5964 8.2508 6.81332 9.03426C6.74102 9.10618 6.70063 9.20388 6.70063 9.30618C6.70063 11.32 10.9483 14.1139 11.7006 14.1139C12.3549 14.1139 13.2079 13.0143 13.6937 12.2977C13.7218 12.2989 13.7691 12.3085 13.8364 12.3423C13.9749 12.412 14.2149 12.5685 14.5183 12.767C14.9191 13.0289 15.4514 13.3766 16.0799 13.737C15.7945 15.11 14.9968 16.4989 11.9499 16.0412Z" fill="#FF014F"/>
</svg>
